# 
# Wavefront OBJ file
# Created with Autodesk FBX SDK
# 
mtllib block.mtl

g cracker_box
v -0.600000 -0.750000 0.750000
v 0.600000 -0.750000 0.750000
v 0.600000 0.750000 0.750000
v -0.600000 0.750000 0.750000
v -0.600000 0.750000 0.750000
v 0.600000 0.750000 0.750000
v 0.600000 0.750000 -0.750000
v -0.600000 0.750000 -0.750000
v -0.600000 0.750000 -0.750000
v 0.600000 0.750000 -0.750000
v 0.600000 -0.750000 -0.750000
v -0.600000 -0.750000 -0.750000
v -0.600000 -0.750000 -0.750000
v 0.600000 -0.750000 -0.750000
v 0.600000 -0.750000 0.750000
v -0.600000 -0.750000 0.750000
v 0.600000 -0.750000 0.750000
v 0.600000 -0.750000 -0.750000
v 0.600000 0.750000 -0.750000
v 0.600000 0.750000 0.750000
v -0.600000 -0.750000 -0.750000
v -0.600000 -0.750000 0.750000
v -0.600000 0.750000 0.750000
v -0.600000 0.750000 -0.750000
vt 0.026677 0.371822
vt 0.168344 0.371822
vt 0.168344 0.812473
vt 0.026677 0.812473
vt 0.027073 0.180187
vt 0.667983 0.459371
vt 0.667983 0.901896
vt 0.596057 0.793620
vt 0.532277 0.985745
vt 0.190610 0.894196
vt 0.422281 0.296452
vt 0.027073 0.296452
vt 0.520613 0.516202
vt 0.429657 0.176749
vt 0.856430 0.062396
vt 0.947386 0.401849
vt 0.192276 0.353447
vt 0.422281 0.180187
vt 0.596057 0.353447
vt 0.539592 0.459371
vt 0.220791 0.781558
vt 0.192276 0.793620
vt 0.562459 0.873108
vt 0.539592 0.901896
vn 0.000000 0.000000 1.000000
vn 0.000000 0.000000 1.000000
vn 0.000000 0.000000 1.000000
vn 0.000000 0.000000 1.000000
vn 0.000000 1.000000 0.000000
vn 0.000000 1.000000 0.000000
vn 0.000000 1.000000 0.000000
vn 0.000000 1.000000 0.000000
vn 0.000000 0.000000 -1.000000
vn 0.000000 0.000000 -1.000000
vn 0.000000 0.000000 -1.000000
vn 0.000000 0.000000 -1.000000
vn 0.000000 -1.000000 0.000000
vn 0.000000 -1.000000 0.000000
vn 0.000000 -1.000000 0.000000
vn 0.000000 -1.000000 0.000000
vn 1.000000 0.000000 0.000000
vn 1.000000 0.000000 0.000000
vn 1.000000 0.000000 0.000000
vn 1.000000 0.000000 0.000000
vn -1.000000 0.000000 0.000000
vn -1.000000 0.000000 0.000000
vn -1.000000 0.000000 0.000000
vn -1.000000 0.000000 0.000000
usemtl box_material
f 3/15/3 4/16/4 1/13/1
f 3/15/3 1/13/1 2/14/2
f 7/21/7 5/9/5 6/10/6
f 5/9/5 7/21/7 8/23/8
f 11/17/11 12/19/12 9/8/9
f 11/17/11 9/8/9 10/22/10
f 15/11/15 16/12/16 13/5/13
f 15/11/15 13/5/13 14/18/14
f 18/2/18 19/3/19 17/1/17
f 20/4/20 17/1/17 19/3/19
f 23/7/23 21/20/21 22/6/22
f 21/20/21 23/7/23 24/24/24
